<svg width="74" height="58" viewBox="0 0 74 58" fill="none" xmlns="http://www.w3.org/2000/svg">
<path d="M67.8333 3.21875C67.8333 1.5043 66.4587 0.125 64.75 0.125C63.0413 0.125 61.6667 1.5043 61.6667 3.21875V4.25H4.11111C1.83715 4.25 0 6.09336 0 8.375V22.8125C0 25.0941 1.83715 26.9375 4.11111 26.9375H5.39583C8.06806 26.9375 10.0337 29.4641 9.37847 32.068L4.23958 52.7445C3.93125 53.982 4.21389 55.284 4.98472 56.2895C5.75556 57.2949 6.95035 57.875 8.22222 57.875H20.5556C22.4441 57.875 24.0885 56.5859 24.5382 54.7555L27.8785 41.375H41.3038C44.3486 41.375 47.0594 39.4543 48.0743 36.5797L51.5045 26.9375H55.5C56.592 26.9375 57.6326 26.4992 58.4035 25.7258L61.3198 22.8125H69.8889C72.1628 22.8125 74 20.9691 74 18.6875V8.375C74 6.09336 72.1628 4.25 69.8889 4.25H67.8333V3.21875ZM41.291 35.1875H29.4201L31.4757 26.9375H44.9653L42.2674 34.5043C42.126 34.9168 41.7278 35.1875 41.3038 35.1875H41.291ZM10.2778 12.5H59.6111C60.7417 12.5 61.6667 13.4281 61.6667 14.5625C61.6667 15.6969 60.7417 16.625 59.6111 16.625H10.2778C9.14722 16.625 8.22222 15.6969 8.22222 14.5625C8.22222 13.4281 9.14722 12.5 10.2778 12.5Z" fill="white"/>
</svg>