<svg width="71" height="71" viewBox="0 0 71 71" fill="none" xmlns="http://www.w3.org/2000/svg">
<path d="M62.125 31.0625H66.5625V71H62.125V31.0625ZM17.75 46.5938L22.1875 42.1562V71H17.75V46.5938ZM8.875 55.4688L13.3125 51.0312V71H8.875V55.4688ZM26.625 37.7188L31.0625 33.2812V71H26.625V37.7188ZM35.5 33.2812L39.9375 37.7188V70.9653H35.5V33.2812ZM46.5938 44.375L48.8125 42.1562V71H44.375V42.1562L46.5938 44.375ZM53.25 37.7188L57.6875 33.2812V71H53.25V37.7188ZM0 64.3438L4.4375 59.9062V71H0V64.3438ZM71 8.875V26.625H66.5625V16.4673L46.5938 36.4014L33.2812 23.0889L0 56.4048V50.0952L33.2812 16.8486L46.5938 30.1611L63.4077 13.3125H53.25V8.875H71Z" fill="white"/>
</svg>
