<svg width="63" height="57" viewBox="0 0 63 57" fill="none" xmlns="http://www.w3.org/2000/svg">
<path d="M31.5 10.0256L29.9245 11.4976C30.1262 11.7134 30.3702 11.8856 30.6412 12.0033C30.9122 12.1209 31.2045 12.1817 31.5 12.1817C31.7955 12.1817 32.0878 12.1209 32.3588 12.0033C32.6298 11.8856 32.8738 11.7134 33.0755 11.4976L31.5 10.0256ZM4.6245 33.3361C4.76675 33.5867 4.9578 33.8063 5.18637 33.9818C5.41493 34.1574 5.67637 34.2854 5.95523 34.3581C6.23409 34.4309 6.52471 34.4471 6.80992 34.4056C7.09512 34.3642 7.36913 34.266 7.61573 34.1168C7.86234 33.9677 8.07654 33.7706 8.24567 33.5372C8.41481 33.3039 8.53545 33.039 8.60047 32.7582C8.66548 32.4774 8.67355 32.1865 8.6242 31.9025C8.57484 31.6186 8.46907 31.3474 8.31312 31.1051L4.6245 33.3361ZM15.7939 40.4919C15.5991 40.2783 15.3633 40.1061 15.1005 39.9855C14.8378 39.8648 14.5535 39.7983 14.2645 39.7897C13.9756 39.7812 13.6878 39.8308 13.4184 39.9357C13.149 40.0406 12.9035 40.1986 12.6964 40.4003C12.4892 40.602 12.3248 40.8433 12.2128 41.1099C12.1009 41.3764 12.0436 41.6627 12.0445 41.9518C12.0455 42.2409 12.1045 42.5269 12.2181 42.7927C12.3318 43.0585 12.4977 43.2988 12.7061 43.4992L15.7939 40.4919ZM4.90625 20.7896C4.90625 12.4377 8.55175 7.27705 13.0597 5.50893C17.5591 3.74655 23.8525 5.00581 29.9245 11.4976L33.0755 8.55355C26.21 1.2108 18.1284 -1.10645 11.4871 1.49255C4.8545 4.09155 0.59375 11.2273 0.59375 20.7896H4.90625ZM41.5913 51.3853C45.8836 47.9037 51.0241 43.2376 55.1124 38.0252C59.1575 32.8674 62.4062 26.8731 62.4062 20.7838H58.0938C58.0938 25.4183 55.5637 30.4553 51.717 35.3629C47.9105 40.2188 43.046 44.6549 38.8773 48.0359L41.5913 51.3853ZM62.4062 20.7838C62.4062 11.2244 58.1455 4.08868 51.51 1.49255C44.8687 -1.10932 36.79 1.20505 29.9245 8.55068L33.0755 11.4976C39.1475 5.00581 45.4409 3.74368 49.9403 5.50605C54.4482 7.2713 58.0938 12.4348 58.0938 20.7838H62.4062ZM21.4087 51.3882C25.06 54.3552 27.5958 56.5316 31.5 56.5316V52.2191C29.4214 52.2191 28.1276 51.2876 24.1227 48.0388L21.4087 51.3882ZM38.8773 48.0359C34.8724 51.2847 33.5786 52.2191 31.5 52.2191V56.5316C35.4043 56.5316 37.9429 54.3552 41.5941 51.3882L38.8773 48.0359ZM8.316 31.1051C6.16263 27.5516 4.90625 24.0584 4.90625 20.7896H0.59375C0.59375 25.1366 2.24975 29.4146 4.6245 33.3361L8.316 31.1051ZM24.1227 48.0388C21.204 45.685 18.4231 43.1652 15.7939 40.4919L12.7061 43.4992C15.45 46.296 18.3577 48.9301 21.4087 51.3882L24.1227 48.0388Z" fill="white"/>
</svg>