<svg width="67" height="71" viewBox="0 0 67 71" fill="none" xmlns="http://www.w3.org/2000/svg">
<path d="M44.7778 27.873C43.9689 28.3122 43.1947 28.786 42.4551 29.2944C41.7155 29.8029 41.0221 30.3807 40.375 31.0278V30.4731L31.5 25.4116L22.625 30.4731V40.5269L31.5 45.5884L34.8975 43.647C34.8975 43.7625 34.8859 43.8781 34.8628 43.9937C34.8397 44.1092 34.8281 44.2363 34.8281 44.375C34.8281 45.0684 34.8743 45.7617 34.9668 46.4551C35.0592 47.1484 35.1979 47.8302 35.3828 48.5005L31.5 50.7192L18.1875 43.0923V27.9077L31.5 20.2808L44.7778 27.873ZM4.875 20.3154V50.6846L24.9478 62.125C24.37 62.7259 23.8499 63.269 23.3877 63.7544C22.9255 64.2397 22.521 64.8753 22.1743 65.6611L0.4375 53.25V17.75L31.5 0L62.5625 17.75V27.8384C61.1527 27.0526 59.6735 26.4748 58.125 26.105V20.3154L31.5 5.09619L4.875 20.3154ZM53.6875 31.0625C55.5133 31.0625 57.2352 31.4092 58.853 32.1025C60.4709 32.7959 61.8807 33.7435 63.0825 34.9453C64.2843 36.1471 65.2435 37.5685 65.96 39.2095C66.6764 40.8504 67.0231 42.5723 67 44.375C67 46.224 66.6533 47.9458 65.96 49.5405C65.2666 51.1353 64.319 52.5451 63.1172 53.77C61.9154 54.995 60.494 55.9541 58.853 56.6475C57.2121 57.3408 55.4902 57.6875 53.6875 57.6875C52.3008 57.6875 50.9487 57.4795 49.6313 57.0635C48.314 56.6475 47.1006 56.035 45.9912 55.2261L30.8413 70.3413C30.4022 70.7804 29.8822 71 29.2812 71C28.6803 71 28.1603 70.7804 27.7212 70.3413C27.2821 69.9022 27.0625 69.3822 27.0625 68.7812C27.0625 68.1803 27.2821 67.6603 27.7212 67.2212L42.8364 52.0713C42.0275 50.9619 41.415 49.7485 40.999 48.4312C40.583 47.1138 40.375 45.7617 40.375 44.375C40.375 42.5492 40.7217 40.8273 41.415 39.2095C42.1084 37.5916 43.056 36.1818 44.2578 34.98C45.4596 33.7782 46.8695 32.819 48.4873 32.1025C50.1051 31.3861 51.8385 31.0394 53.6875 31.0625ZM53.6875 53.25C54.9124 53.25 56.0565 53.0189 57.1196 52.5566C58.1828 52.0944 59.1304 51.4588 59.9624 50.6499C60.7944 49.841 61.43 48.9049 61.8691 47.8418C62.3083 46.7786 62.5394 45.623 62.5625 44.375C62.5625 43.1501 62.3314 42.006 61.8691 40.9429C61.4069 39.8797 60.7713 38.9321 59.9624 38.1001C59.1535 37.2681 58.2174 36.6325 57.1543 36.1934C56.0911 35.7542 54.9355 35.5231 53.6875 35.5C52.4626 35.5 51.3185 35.7311 50.2554 36.1934C49.1922 36.6556 48.2446 37.2912 47.4126 38.1001C46.5806 38.909 45.945 39.8451 45.5059 40.9082C45.0667 41.9714 44.8356 43.127 44.8125 44.375C44.8125 45.5999 45.0436 46.744 45.5059 47.8071C45.9681 48.8703 46.6037 49.8179 47.4126 50.6499C48.2215 51.4819 49.1576 52.1175 50.2207 52.5566C51.2839 52.9958 52.4395 53.2269 53.6875 53.25Z" fill="white"/>
</svg>