<svg width="69" height="69" viewBox="0 0 69 69" fill="none" xmlns="http://www.w3.org/2000/svg">
<path d="M0.375 0.375V51.5625H17.4375V68.625H68.625V17.4375H51.5625V0.375H0.375ZM6.0625 6.0625H45.875V19.0385L19.0357 45.875H6.0625V6.0625ZM20.2812 11.75V14.5938H11.75V20.2812H25.7924C25.4227 23.5459 24.4246 26.1252 22.7695 27.9252C21.8706 27.6357 21.0066 27.2475 20.1931 26.7678C18.1939 25.5792 17.4375 24.3137 17.4375 23.125H11.75C11.75 26.5119 13.8373 29.3357 16.6384 31.2126C15.0288 31.53 13.3905 31.6787 11.75 31.6562V37.3438C16.792 37.3438 20.9922 36.1892 24.1914 34.0564C25.6787 34.3123 27.1916 34.5 28.8125 34.5V29.168C30.3567 26.5802 31.1785 23.5572 31.4799 20.2812H34.5V14.5938H25.9688V11.75H20.2812ZM49.9643 23.125H62.9375V62.9375H23.125V49.9615L49.9643 23.125ZM45.875 28.3689L43.2076 36.4565L37.5201 53.519L37.3438 53.9626V57.25H43.0312V54.7617L43.1194 54.4062H48.6306L48.7188 54.7617V57.25H54.4062V53.9626L54.2271 53.5162L48.5396 36.4537L45.875 28.3689ZM45.875 46.2305L46.6741 48.7188H45.0759L45.875 46.2305Z" fill="white"/>
</svg>