<svg width="83" height="83" viewBox="0 0 83 83" fill="none" xmlns="http://www.w3.org/2000/svg">
<path d="M41.5 60.5312L35.6846 57.7772C33.3614 56.6704 31.3985 54.9295 30.0222 52.7552C28.6459 50.5808 27.9124 48.0617 27.9062 45.4884V27.9062H55.0938V45.4911C55.0876 48.0644 54.3541 50.5835 52.9778 52.7579C51.6015 54.9322 49.6386 56.6732 47.3154 57.7799L41.5 60.5312ZM33.3438 33.3438V45.4911C33.3479 47.0344 33.7884 48.5451 34.6144 49.8488C35.4404 51.1525 36.6182 52.196 38.0118 52.8589L41.5 54.5119L44.9882 52.8617C46.3822 52.1985 47.5603 51.1545 48.3863 49.8503C49.2123 48.5461 49.6526 47.0349 49.6562 45.4911V33.3438H33.3438ZM9.20125 46.0023C9.97861 45.4768 10.6068 44.7592 11.0247 43.9191C11.4426 43.079 11.636 42.1451 11.5861 41.2081C11.5361 40.2712 11.2446 39.3631 10.7399 38.5721C10.2351 37.7812 9.53426 37.1343 8.70548 36.6944C7.8767 36.2545 6.9482 36.0366 6.01025 36.0618C5.07231 36.087 4.15684 36.3544 3.35287 36.8382C2.54891 37.3219 1.88379 38.0055 1.42221 38.8224C0.96063 39.6393 0.718289 40.5617 0.718751 41.5C0.718751 43.6451 1.96938 45.4803 3.77463 46.3666C4.67747 53.5276 7.60495 60.2823 12.2132 65.8374C16.8215 71.3925 22.9193 75.5173 29.7903 77.7273L31.4597 72.5508C25.6232 70.676 20.4363 67.1882 16.4981 62.4904C12.5599 57.7925 10.0284 52.0764 9.20125 46.0023ZM77.7301 53.2124L72.5536 51.5376C70.6792 57.3746 67.1916 62.5621 62.4937 66.5008C57.7958 70.4395 52.0794 72.9687 46.005 73.796C45.4792 73.0193 44.7615 72.3917 43.9216 71.9743C43.0816 71.5569 42.148 71.3639 41.2113 71.414C40.2747 71.4641 39.367 71.7557 38.5764 72.2603C37.7858 72.765 37.1391 73.4655 36.6993 74.294C36.2594 75.1224 36.0414 76.0505 36.0663 76.9881C36.0912 77.9258 36.3582 78.841 36.8414 79.6449C37.3246 80.4488 38.0075 81.1141 38.8238 81.576C39.6401 82.038 40.562 82.2809 41.5 82.2812C43.6451 82.2812 45.4803 81.0306 46.3666 79.2254C53.5273 78.3227 60.2818 75.3957 65.8368 70.7879C71.3919 66.1801 75.5196 60.0829 77.7301 53.2124ZM79.2254 36.6334C78.3225 29.4724 75.3951 22.7177 70.7868 17.1626C66.1785 11.6075 60.0807 7.48269 53.2097 5.27266L51.5403 10.4492C57.3768 12.324 62.5637 15.8118 66.5019 20.5096C70.4401 25.2075 72.9689 30.9236 73.796 36.9977C73.0192 37.5235 72.3915 38.2414 71.9742 39.0815C71.5568 39.9215 71.3638 40.8553 71.4141 41.792C71.4643 42.7288 71.756 43.6366 72.2609 44.4272C72.7657 45.2178 73.4665 45.8644 74.2952 46.3041C75.1238 46.7438 76.0521 46.9616 76.9898 46.9364C77.9276 46.9112 78.8428 46.6438 79.6466 46.1603C80.4505 45.6767 81.1155 44.9934 81.5772 44.1768C82.0389 43.3602 82.2814 42.4381 82.2812 41.5C82.2806 40.484 81.9939 39.4887 81.454 38.628C80.914 37.7673 80.1426 37.0761 79.2281 36.6334M41.5 0.71875C39.3549 0.71875 37.5197 1.96938 36.6334 3.77463C29.4727 4.67725 22.7182 7.60433 17.1632 12.2121C11.6081 16.8199 7.48313 22.9171 5.27266 29.7876L10.4492 31.4624C12.3235 25.6254 15.8112 20.4379 20.509 16.4992C25.2069 12.5605 30.9233 10.0313 36.9977 9.20397C37.5235 9.98083 38.2414 10.6085 39.0815 11.0258C39.9215 11.4432 40.8553 11.6362 41.792 11.5859C42.7288 11.5357 43.6366 11.244 44.4272 10.7391C45.2178 10.2343 45.8644 9.53349 46.3041 8.70484C46.7438 7.8762 46.9616 6.9479 46.9364 6.01017C46.9112 5.07245 46.6438 4.15719 46.1603 3.35335C45.6767 2.54952 44.9934 1.88446 44.1768 1.4228C43.3602 0.961147 42.4381 0.718605 41.5 0.71875Z" fill="white"/>
</svg>